<svg width="47" height="42" viewBox="0 0 47 42" fill="none" xmlns="http://www.w3.org/2000/svg">
<path d="M0.960533 36.9746C-0.136382 37.8547 -0.312098 39.4574 0.56806 40.5544C1.44822 41.6513 3.05095 41.827 4.14787 40.9468L0.960533 36.9746ZM46.1377 6.29816C46.291 4.90016 45.2819 3.64261 43.8839 3.48934L21.1022 0.991651C19.7042 0.838381 18.4466 1.84743 18.2934 3.24544C18.1401 4.64344 19.1492 5.90099 20.5472 6.05426L40.7976 8.27443L38.5774 28.5249C38.4242 29.9229 39.4332 31.1804 40.8312 31.3337C42.2292 31.487 43.4868 30.4779 43.64 29.0799L46.1377 6.29816ZM4.14787 40.9468L45.2001 8.00678L42.0128 4.0345L0.960533 36.9746L4.14787 40.9468Z" fill="black"/>
</svg>
